<svg width="16" height="15" viewBox="0 0 16 15" xmlns="http://www.w3.org/2000/svg"><title>download</title><path d="M15.706 10.255c-.178-.18-.396-.272-.65-.272h-4.45l-1.302 1.32c-.37.36-.806.542-1.304.542s-.933-.18-1.304-.543l-1.294-1.32H.945c-.255 0-.472.092-.65.273-.18.18-.27.4-.27.66v3.103c0 .26.09.478.27.66.178.18.395.27.65.27h14.11c.255 0 .473-.09.65-.27.18-.182.27-.4.27-.66v-3.104c0-.26-.09-.478-.27-.66zm-3.594 3.268c-.12.123-.265.184-.43.184-.168 0-.31-.06-.433-.184-.122-.123-.183-.268-.183-.436 0-.168.06-.314.182-.437.12-.123.264-.184.43-.184.167 0 .31.062.432.184.12.123.182.27.182.437 0 .168-.06.313-.182.436zm2.454 0c-.122.123-.265.184-.432.184-.166 0-.31-.06-.43-.184-.122-.123-.183-.268-.183-.436 0-.168.062-.314.183-.437.122-.123.265-.184.43-.184.168 0 .31.062.433.184.12.123.182.27.182.437 0 .168-.06.313-.182.436zM7.57 10.42c.114.122.258.184.43.184.173 0 .316-.062.43-.185l4.295-4.346c.2-.187.243-.414.135-.68-.11-.25-.297-.377-.566-.377H9.84V.672c0-.168-.06-.314-.182-.437-.12-.123-.265-.184-.43-.184H6.772c-.166 0-.31.062-.43.185-.123.123-.183.27-.183.437v4.345H3.706c-.27 0-.457.126-.566.378-.108.265-.064.492.135.68l4.294 4.344z" fill="#0E6E76" fill-rule="evenodd"/></svg>