<svg xmlns="http://www.w3.org/2000/svg" width="16" height="14" viewBox="0 0 16 14"><path d="M13.35 7.69c.13.05.2.15.2.28v3.17c0 .79-.27 1.46-.82 2.02-.54.56-1.19.84-1.95.84H2.77c-.76 0-1.42-.28-1.96-.84C.27 12.6 0 11.93 0 11.14V2.86C0 2.07.27 1.4.81.84S2.01 0 2.77 0h8.01c.4 0 .77.08 1.12.25.1.04.16.12.17.23.02.11-.01.21-.08.29l-.47.48c-.07.07-.14.1-.22.1-.02 0-.05 0-.09-.02-.15-.04-.29-.06-.43-.06H2.77c-.42 0-.78.16-1.09.47-.3.31-.45.69-.45 1.12v8.28c0 .43.15.81.45 1.12.31.31.67.47 1.09.47h8.01c.42 0 .78-.16 1.08-.47.3-.31.45-.69.45-1.12V8.61c0-.09.03-.16.09-.22l.62-.63c.06-.07.13-.1.22-.1.04 0 .08.01.11.03m2.42-5.71c.15.16.23.35.23.57 0 .21-.08.4-.23.56l-7.83 8.1c-.16.16-.34.23-.55.23-.21 0-.4-.07-.55-.23L2.7 6.93c-.15-.16-.23-.35-.23-.57 0-.22.08-.4.23-.56l1.06-1.1c.16-.16.34-.24.55-.24.21 0 .39.08.55.24l2.53 2.62L13.61.88c.16-.15.34-.23.55-.23.21 0 .4.08.55.23l1.06 1.1" fill="#fff"/></svg>