<svg xmlns="http://www.w3.org/2000/svg" width="19" height="14" viewBox="0 0 19 14"><path d="M2.73 4.27c-.42-.28-.81-.66-1.18-1.14C1.18 2.65 1 2.2 1 1.79c0-.51.14-.94.42-1.28C1.69.17 2.09 0 2.61 0h14.78c.44 0 .81.15 1.13.46.32.31.48.68.48 1.11 0 .52-.16 1.02-.49 1.49-.33.47-.74.87-1.23 1.21l-4.7 3.19c-.07.05-.21.15-.43.3-.21.16-.39.28-.54.38-.14.09-.32.2-.52.32-.2.11-.4.2-.58.26-.18.06-.35.09-.5.09H10h-.01c-.15 0-.32-.03-.5-.09s-.38-.15-.58-.26c-.2-.12-.38-.23-.52-.32-.15-.1-.33-.22-.54-.38-.22-.15-.36-.25-.43-.3-.61-.42-1.49-1.01-2.63-1.79-1.15-.78-1.83-1.25-2.06-1.4M18 5.32c.38-.26.71-.54 1-.86v7.81c0 .43-.16.8-.47 1.11-.32.31-.7.46-1.14.46H2.61c-.44 0-.82-.15-1.14-.46-.31-.31-.47-.68-.47-1.11V4.46c.29.33.63.61 1.01.86 2.43 1.61 4.09 2.74 5 3.39.38.28.69.49.93.65.23.15.55.31.94.47.4.16.77.24 1.11.24h.02c.34 0 .71-.08 1.11-.24.39-.16.71-.32.94-.47.24-.16.55-.37.93-.65 1.14-.8 2.81-1.94 5.01-3.39" fill="#0e6e76"/></svg>