<svg xmlns="http://www.w3.org/2000/svg" width="16" height="15" viewBox="0 0 16 15"><path d="M15.8 11.49c.02.05.03.13.03.23 0 .19-.03.43-.1.74-.07.3-.15.54-.22.72-.15.35-.58.72-1.29 1.12-.66.35-1.31.53-1.96.53-.19 0-.37-.01-.55-.03-.18-.03-.38-.07-.61-.13-.22-.07-.39-.12-.5-.16-.11-.04-.3-.11-.58-.21-.28-.11-.45-.17-.52-.19-.69-.25-1.3-.54-1.84-.88-.9-.55-1.83-1.31-2.79-2.27S3.16 9.07 2.6 8.18c-.34-.55-.63-1.16-.87-1.85-.02-.06-.09-.23-.19-.51-.11-.29-.18-.48-.22-.59-.04-.11-.09-.28-.15-.5-.06-.22-.11-.43-.13-.61-.03-.17-.04-.36-.04-.55 0-.64.18-1.3.54-1.96C1.93.9 2.3.47 2.65.33c.18-.08.42-.15.73-.22.3-.07.55-.11.74-.11.1 0 .17.01.22.03.13.04.31.31.56.8.08.14.18.33.31.57.14.25.26.47.37.67.12.2.22.39.33.56l.18.27c.11.14.18.27.23.37.05.1.07.2.07.3 0 .14-.1.32-.3.53-.2.21-.41.4-.65.58-.23.17-.45.36-.65.56-.2.19-.3.35-.3.48 0 .06.01.14.05.24.03.09.06.16.09.21.02.05.07.14.15.26.07.12.11.18.12.2.53.96 1.14 1.78 1.83 2.47.69.69 1.51 1.3 2.48 1.84.01 0 .08.04.2.12.12.07.2.12.25.14.05.03.12.06.22.09.09.04.17.06.23.06.13 0 .29-.1.49-.3.19-.2.38-.42.56-.66.17-.23.36-.45.58-.65.21-.2.38-.3.52-.3.1 0 .2.02.3.07.1.05.23.13.38.23.14.1.23.16.26.18.18.11.36.22.56.33.2.11.43.24.67.37.25.13.44.24.57.32.49.24.76.43.8.55z" fill="#0e6e76"/></svg>