<?xml version="1.0" encoding="UTF-8" standalone="no"?>
<svg width="16px" height="15px" viewBox="0 0 16 15" version="1.1" xmlns="http://www.w3.org/2000/svg" xmlns:xlink="http://www.w3.org/1999/xlink" xmlns:sketch="http://www.bohemiancoding.com/sketch/ns">
    <!-- Generator: Sketch Beta 3.3 (11970) - http://www.bohemiancoding.com/sketch -->
    <title>download</title>
    <desc>Created with Sketch Beta.</desc>
    <defs></defs>
    <g id="Page-1" stroke="none" stroke-width="1" fill="none" fill-rule="evenodd" sketch:type="MSPage">
        <g id="Desktop-HD" sketch:type="MSArtboardGroup" transform="translate(-267.000000, -3178.000000)" fill="#0E6E76">
            <g id="Další-informace-a-odkazy" sketch:type="MSLayerGroup" transform="translate(267.000000, 3110.000000)">
                <g id="1.radek-odkazu" transform="translate(0.000000, 64.000000)" sketch:type="MSShapeGroup">
                    <g id="O-kurzu-+-PDF-+-download">
                        <path d="M15.7063529,14.2546429 C15.5275294,14.0735714 15.3102353,13.9830952 15.0547059,13.9830952 L10.6070588,13.9830952 L9.30352941,15.3021429 C8.93294118,15.6641667 8.49835294,15.8452381 8,15.8452381 C7.50164706,15.8452381 7.06705882,15.6642857 6.69647059,15.3021429 L5.40247059,13.9830952 L0.945411765,13.9830952 C0.689882353,13.9830952 0.472588235,14.0736905 0.293647059,14.2546429 C0.114705882,14.4355952 0.0252941176,14.6554762 0.0252941176,14.9141667 L0.0252941176,18.0178571 C0.0252941176,18.2765476 0.114705882,18.4964286 0.293647059,18.677381 C0.472588235,18.8583333 0.689882353,18.9489286 0.945411765,18.9489286 L15.0547059,18.9489286 C15.3102353,18.9489286 15.5276471,18.8583333 15.7063529,18.677381 C15.8852941,18.4963095 15.9747059,18.2765476 15.9747059,18.0178571 L15.9747059,14.9141667 C15.9747059,14.6554762 15.8852941,14.4355952 15.7063529,14.2546429 L15.7063529,14.2546429 Z M12.1121176,17.5232143 C11.9905882,17.6460714 11.8467059,17.7075 11.6805882,17.7075 C11.5144706,17.7075 11.3708235,17.6460714 11.2492941,17.5232143 C11.128,17.4003571 11.0672941,17.254881 11.0672941,17.0867857 C11.0672941,16.9188095 11.128,16.7730952 11.2492941,16.6503571 C11.3708235,16.5275 11.5144706,16.4659524 11.6805882,16.4659524 C11.8467059,16.4659524 11.9905882,16.5275 12.1121176,16.6503571 C12.2334118,16.7730952 12.2941176,16.9188095 12.2941176,17.0867857 C12.2941176,17.254881 12.2334118,17.4002381 12.1121176,17.5232143 L12.1121176,17.5232143 Z M14.5657647,17.5232143 C14.4444706,17.6460714 14.3005882,17.7075 14.1344706,17.7075 C13.9683529,17.7075 13.8245882,17.6460714 13.7031765,17.5232143 C13.5818824,17.4003571 13.5211765,17.254881 13.5211765,17.0867857 C13.5211765,16.9188095 13.5818824,16.7730952 13.7031765,16.6503571 C13.8245882,16.5275 13.9683529,16.4659524 14.1344706,16.4659524 C14.3005882,16.4659524 14.4444706,16.5275 14.5657647,16.6503571 C14.6871765,16.7730952 14.748,16.9188095 14.748,17.0867857 C14.7478824,17.254881 14.6872941,17.4002381 14.5657647,17.5232143 Z M7.56870588,14.4194048 C7.68376471,14.5421429 7.82752941,14.6035714 8,14.6035714 C8.17258824,14.6035714 8.31623529,14.5421429 8.43129412,14.4194048 L12.7254118,10.0741667 C12.9235294,9.88666667 12.9682353,9.66035714 12.8596471,9.3952381 C12.7511765,9.14309524 12.5625882,9.01702381 12.2941176,9.01690476 L9.84035294,9.01690476 L9.84035294,4.67166667 C9.84035294,4.50357143 9.77952941,4.35809524 9.65835294,4.2352381 C9.53682353,4.11238095 9.39305882,4.05095238 9.22705882,4.05095238 L6.77305882,4.05095238 C6.60694118,4.05095238 6.46317647,4.11238095 6.34176471,4.2352381 C6.22035294,4.35809524 6.15964706,4.50357143 6.15964706,4.67166667 L6.15964706,9.01690476 L3.70588235,9.01690476 C3.43741176,9.01690476 3.24894118,9.14309524 3.14035294,9.3952381 C3.03176471,9.6602381 3.07647059,9.88666667 3.27458824,10.0741667 L7.56870588,14.4194048 Z" id="download"></path>
                    </g>
                </g>
            </g>
        </g>
    </g>
</svg>