<?xml version="1.0" encoding="UTF-8" standalone="no"?>
<!-- Generator: Avocode 1.0.1 - http://avocode.com -->
<svg xmlns="http://www.w3.org/2000/svg" xmlns:xlink="http://www.w3.org/1999/xlink" width="16" height="14" viewBox="0 0 16 14">
    <desc>Created with Avocode</desc>
    <path d="M13.35,7.69C13.35,7.69,13.35,7.69,13.35,7.69C13.48,7.74,13.55,7.84,13.55,7.97C13.55,7.97,13.55,11.14,13.55,11.14C13.55,11.93,13.28,12.6,12.73,13.16C12.19,13.72,11.54,14,10.78,14C10.78,14,2.77,14,2.77,14C2.01,14,1.35,13.72,0.81,13.16C0.27,12.6,0,11.93,0,11.14C0,11.14,0,2.86,0,2.86C0,2.07,0.27,1.4,0.81,0.84C1.35,0.28,2.01,0,2.77,0C2.77,0,10.78,0,10.78,0C11.18,0,11.55,0.08,11.9,0.25C12,0.29,12.06,0.37,12.07,0.48C12.09,0.59,12.06,0.69,11.99,0.77C11.99,0.77,11.52,1.25,11.52,1.25C11.45,1.32,11.38,1.35,11.3,1.35C11.28,1.35,11.25,1.35,11.21,1.33C11.06,1.29,10.92,1.27,10.78,1.27C10.78,1.27,2.77,1.27,2.77,1.27C2.35,1.27,1.99,1.43,1.68,1.74C1.38,2.05,1.23,2.43,1.23,2.86C1.23,2.86,1.23,11.14,1.23,11.14C1.23,11.57,1.38,11.95,1.68,12.26C1.99,12.57,2.35,12.73,2.77,12.73C2.77,12.73,10.78,12.73,10.78,12.73C11.2,12.73,11.56,12.57,11.86,12.26C12.16,11.95,12.31,11.57,12.31,11.14C12.31,11.14,12.31,8.61,12.31,8.61C12.31,8.52,12.34,8.45,12.4,8.39C12.4,8.39,13.02,7.76,13.02,7.76C13.08,7.69,13.15,7.66,13.24,7.66C13.28,7.66,13.32,7.67,13.35,7.69C13.35,7.69,13.35,7.69,13.35,7.69M15.77,1.98C15.77,1.98,15.77,1.98,15.77,1.98C15.92,2.14,16,2.33,16,2.55C16,2.76,15.92,2.95,15.77,3.11C15.77,3.11,7.94,11.21,7.94,11.21C7.78,11.37,7.6,11.44,7.39,11.44C7.18,11.44,6.99,11.37,6.84,11.21C6.84,11.21,2.7,6.93,2.7,6.93C2.55,6.77,2.47,6.58,2.47,6.36C2.47,6.14,2.55,5.96,2.7,5.8C2.7,5.8,3.76,4.7,3.76,4.7C3.92,4.54,4.1,4.46,4.31,4.46C4.52,4.46,4.7,4.54,4.86,4.7C4.86,4.7,7.39,7.32,7.39,7.32C7.39,7.32,13.61,0.88,13.61,0.88C13.77,0.73,13.95,0.65,14.16,0.65C14.37,0.65,14.56,0.73,14.71,0.88C14.71,0.88,15.77,1.98,15.77,1.98C15.77,1.98,15.77,1.98,15.77,1.98" fill="#ffffff" />
</svg>