<?xml version="1.0" encoding="UTF-8" standalone="no"?>
<!-- Generator: Avocode 1.0.1 - http://avocode.com -->
<svg xmlns="http://www.w3.org/2000/svg" xmlns:xlink="http://www.w3.org/1999/xlink" width="16" height="10" viewBox="0 0 16 10">
    <desc>Created with Avocode</desc>
    <path d="M 15.62 1.14 L 15.62 1.14 C 15.87 1.41, 16 1.71, 16 2.07 C 16 2.43, 15.87 2.73, 15.62 2.98 L 8.93 9.61 C 8.67 9.87, 8.36 10, 8 10 C 7.63 10, 7.32 9.87, 7.08 9.61 L 0.39 2.98 C 0.13 2.74, 0 2.43, 0 2.07 C 0 1.71, 0.13 1.4, 0.39 1.14 L 1.15 0.38 C 1.42 0.13, 1.73 0, 2.08 0 C 2.45 0, 2.76 0.13, 3.01 0.38 L 8 5.33 L 12.99 0.38 C 13.24 0.13, 13.55 0, 13.92 0 C 14.27 0, 14.58 0.13, 14.85 0.38 L 15.62 1.14 Z" opacity="0.38" fill="#dcd1c9" />
</svg>