<?xml version="1.0" encoding="UTF-8" standalone="no"?>
<!-- Generator: Avocode 1.0.1 - http://avocode.com -->
<svg xmlns="http://www.w3.org/2000/svg" xmlns:xlink="http://www.w3.org/1999/xlink" width="19" height="14" viewBox="0 0 19 14">
    <desc>Created with Avocode</desc>
    <path d="M2.73,4.27C2.73,4.27,2.73,4.27,2.73,4.27C2.31,3.99,1.92,3.61,1.55,3.13C1.18,2.65,1,2.2,1,1.79C1,1.28,1.14,0.85,1.42,0.51C1.69,0.17,2.09,0,2.61,0C2.61,0,17.39,0,17.39,0C17.83,0,18.2,0.15,18.52,0.46C18.84,0.77,19,1.14,19,1.57C19,2.09,18.84,2.59,18.51,3.06C18.18,3.53,17.77,3.93,17.28,4.27C14.76,5.98,13.2,7.04,12.58,7.46C12.51,7.51,12.37,7.61,12.15,7.76C11.94,7.92,11.76,8.04,11.61,8.14C11.47,8.23,11.29,8.34,11.09,8.46C10.89,8.57,10.69,8.66,10.51,8.72C10.33,8.78,10.16,8.81,10.01,8.81C10.01,8.81,10,8.81,10,8.81C10,8.81,9.99,8.81,9.99,8.81C9.84,8.81,9.67,8.78,9.49,8.72C9.31,8.66,9.11,8.57,8.91,8.46C8.71,8.34,8.53,8.23,8.39,8.14C8.24,8.04,8.06,7.92,7.85,7.76C7.63,7.61,7.49,7.51,7.42,7.46C6.81,7.04,5.93,6.45,4.79,5.67C3.64,4.89,2.96,4.42,2.73,4.27C2.73,4.27,2.73,4.27,2.73,4.27M18,5.32C18,5.32,18,5.32,18,5.32C18.38,5.06,18.71,4.78,19,4.46C19,4.46,19,12.27,19,12.27C19,12.7,18.84,13.07,18.53,13.38C18.21,13.69,17.83,13.84,17.39,13.84C17.39,13.84,2.61,13.84,2.61,13.84C2.17,13.84,1.79,13.69,1.47,13.38C1.16,13.07,1,12.7,1,12.27C1,12.27,1,4.46,1,4.46C1.29,4.79,1.63,5.07,2.01,5.32C4.44,6.93,6.1,8.06,7.01,8.71C7.39,8.99,7.7,9.2,7.94,9.36C8.17,9.51,8.49,9.67,8.88,9.83C9.28,9.99,9.65,10.07,9.99,10.07C9.99,10.07,10,10.07,10,10.07C10,10.07,10.01,10.07,10.01,10.07C10.35,10.07,10.72,9.99,11.12,9.83C11.51,9.67,11.83,9.51,12.06,9.36C12.3,9.2,12.61,8.99,12.99,8.71C14.13,7.91,15.8,6.77,18,5.32C18,5.32,18,5.32,18,5.32" fill="#0e6e76" />
</svg>