<?xml version="1.0" encoding="UTF-8" standalone="no"?>
<!-- Generator: Avocode 1.0.1 - http://avocode.com -->
<svg xmlns="http://www.w3.org/2000/svg" xmlns:xlink="http://www.w3.org/1999/xlink" width="16" height="15" viewBox="0 0 16 15">
    <desc>Created with Avocode</desc>
    <path d="M 15.8 11.49 L 15.8 11.49 C 15.82 11.54, 15.83 11.62, 15.83 11.72 C 15.83 11.91, 15.8 12.15, 15.73 12.46 C 15.66 12.76, 15.58 13, 15.51 13.18 C 15.36 13.53, 14.93 13.9, 14.22 14.3 C 13.56 14.65, 12.91 14.83, 12.26 14.83 C 12.07 14.83, 11.89 14.82, 11.71 14.8 C 11.53 14.77, 11.33 14.73, 11.1 14.67 C 10.88 14.6, 10.71 14.55, 10.6 14.51 C 10.49 14.47, 10.3 14.4, 10.02 14.3 C 9.74 14.19, 9.57 14.13, 9.5 14.11 C 8.81 13.86, 8.2 13.57, 7.66 13.23 C 6.76 12.68, 5.83 11.92, 4.87 10.96 C 3.91 10, 3.16 9.07, 2.6 8.18 C 2.26 7.63, 1.97 7.02, 1.73 6.33 C 1.71 6.27, 1.64 6.1, 1.54 5.82 C 1.43 5.53, 1.36 5.34, 1.32 5.23 C 1.28 5.12, 1.23 4.95, 1.17 4.73 C 1.11 4.51, 1.06 4.3, 1.04 4.12 C 1.01 3.95, 1 3.76, 1 3.57 C 1 2.93, 1.18 2.27, 1.54 1.61 C 1.93 0.9, 2.3 0.47, 2.65 0.33 C 2.83 0.25, 3.07 0.18, 3.38 0.11 C 3.68 0.04, 3.93 0, 4.12 0 C 4.22 0, 4.29 0.01, 4.34 0.03 C 4.47 0.07, 4.65 0.34, 4.9 0.83 C 4.98 0.97, 5.08 1.16, 5.21 1.4 C 5.35 1.65, 5.47 1.87, 5.58 2.07 C 5.7 2.27, 5.8 2.46, 5.91 2.63 C 5.93 2.66, 5.99 2.75, 6.09 2.9 C 6.2 3.04, 6.27 3.17, 6.32 3.27 C 6.37 3.37, 6.39 3.47, 6.39 3.57 C 6.39 3.71, 6.29 3.89, 6.09 4.1 C 5.89 4.31, 5.68 4.5, 5.44 4.68 C 5.21 4.85, 4.99 5.04, 4.79 5.24 C 4.59 5.43, 4.49 5.59, 4.49 5.72 C 4.49 5.78, 4.5 5.86, 4.54 5.96 C 4.57 6.05, 4.6 6.12, 4.63 6.17 C 4.65 6.22, 4.7 6.31, 4.78 6.43 C 4.85 6.55, 4.89 6.61, 4.9 6.63 C 5.43 7.59, 6.04 8.41, 6.73 9.1 C 7.42 9.79, 8.24 10.4, 9.21 10.94 C 9.22 10.94, 9.29 10.98, 9.41 11.06 C 9.53 11.13, 9.61 11.18, 9.66 11.2 C 9.71 11.23, 9.78 11.26, 9.88 11.29 C 9.97 11.33, 10.05 11.35, 10.11 11.35 C 10.24 11.35, 10.4 11.25, 10.6 11.05 C 10.79 10.85, 10.98 10.63, 11.16 10.39 C 11.33 10.16, 11.52 9.94, 11.74 9.74 C 11.95 9.54, 12.12 9.44, 12.26 9.44 C 12.36 9.44, 12.46 9.46, 12.56 9.51 C 12.66 9.56, 12.79 9.64, 12.94 9.74 C 13.08 9.84, 13.17 9.9, 13.2 9.92 C 13.38 10.03, 13.56 10.14, 13.76 10.25 C 13.96 10.36, 14.19 10.49, 14.43 10.62 C 14.68 10.75, 14.87 10.86, 15 10.94 C 15.49 11.18, 15.76 11.37, 15.8 11.49 Z" fill="#0e6e76" />
</svg>